PathFileType	4	(X/Y/Z)	C:/Users/beibeiliu/ov580/test_trc/User2\sequence.6_training_dense_right.trc
DataRate	CameraRate	NumFrames	NumMarkers	Units	OrigDataRate	OrigDataStartFrame	OrigNumFrames
120	120	23	19	mm	120	1	381
Frame#	Time	ThumbCMC			ThumbMCP			ThumbIP			ThumbTip			IndexMCP			IndexPIP			IndexTip			MiddleMCP			MiddlePIP			MiddleTip			RingMCP			RingPIP			RingTip			PinkyMCP			PinkyPIP			PinkyTip			BackHand1			BackHand2			BackHand3	
		X0	Y0	Z0	X1	Y1	Z1	X2	Y2	Z2	X3	Y3	Z3	X4	Y4	Z4	X5	Y5	Z5	X6	Y6	Z6	X7	Y7	Z7	X8	Y8	Z8	X9	Y9	Z9	X10	Y10	Z10	X11	Y11	Z11	X12	Y12	Z12	X13	Y13	Z13	X14	Y14	Z14	X15	Y15	Z15	X16	Y16	Z16	X17	Y17	Z17	X18	Y18	Z18	
0	0	50.2529	22.6222	92.8325	18.5272	16.4055	80.8032	-7.18803	7.688	58.9743	-24.1857	-1.04879	44.4316	42.0881	25.6161	7.27028	30.5519	18.2975	-20.6791	19.8414	13.9509	-41.8591	72.5339	25.1622	-7.13207	64.7403	17.634	-36.3933	64.4152	9.29109	-67.8178	96.1033	16.0153	-6.08962	96.2388	9.07917	-32.3372	97.5568	3.22194	-60.9502	118.429	6.90352	7.50347	125.25	-0.443083	-16.7005	131.835	-3.69732	-37.7034	103.817	33.3567	48.3195	111.064	44.4695	80.5331	73.8514	43.3235	71.8278	
1	0.00833333	46.93	23.2007	87.9923	22.6642	15.7586	80.0206	-5.93782	7.54792	56.5646	-25.8674	-1.45467	47.2925	42.0272	25.1061	6.71417	28.2935	20.0438	-20.2883	22.0277	12.8479	-46.8439	69.0988	25.5938	-6.29168	63.4946	17.2987	-40.9885	63.662	10.1075	-70.4641	93.5147	16.6417	-8.95247	100.469	9.18052	-30.3843	95.7244	3.44403	-61.2962	117.835	6.88189	7.56971	125.715	-0.305925	-18.693	127.942	-4.56424	-42.5798	103.531	33.0746	47.7217	111.189	43.6638	79.3078	72.521	44.2342	67.9093	
2	0.0166667	47.5621	24.7406	92.6216	22.4209	16.287	76.8705	-6.86648	8.62998	57.4671	-23.3826	-0.410163	44.1153	42.3867	25.9112	5.46489	28.7353	21.0719	-17.0145	23.3888	14.5109	-44.433	68.6932	25.7126	-12.016	63.7516	18.3808	-41.1656	64.3531	10.2993	-72.5197	96.6488	17.2207	-8.4061	96.433	10.2608	-30.781	96.4619	3.40575	-60.6544	118.266	9.05869	5.39351	125.605	-0.0353721	-16.7345	128.456	-3.04593	-39.3311	104.42	34.1303	45.6673	113.779	45.0272	75.0532	75.1173	45.7861	68.0093	
3	0.025	45.6414	24.4258	90.0042	20.841	16.6294	80.1824	-6.92217	8.40781	56.2141	-26.3222	-0.951956	44.6744	40.7	26.0483	7.84259	27.4642	19.7607	-21.0068	23.718	13.9647	-46.1976	72.9775	25.6588	-10.4714	67.5718	17.4908	-42.7325	66.9985	9.25258	-70.8701	94.8932	17.7978	-10.0725	97.5292	10.1273	-34.8817	95.0108	3.17147	-61.1915	118.066	8.58145	6.76845	124.129	0.0751097	-14.8036	130.331	-3.84195	-42.8105	101.588	35.6623	45.9409	112.794	43.0566	78.3577	70.5292	44.1456	65.6265	
4	0.0333333	44.2831	24.753	89.0245	21.6431	15.9022	78.7794	-6.85245	8.18542	57.9251	-25.9432	-1.6731	44.0517	41.2373	25.4002	3.84814	28.3851	20.5749	-17.9625	24.4454	13.2093	-45.2627	68.8648	26.1488	-6.34782	65.3214	16.4519	-41.9556	63.972	10.012	-68.6456	94.7118	16.9736	-4.67641	94.6716	9.41708	-35.0214	95.358	3.69996	-62.4807	119.483	7.1335	9.71974	125.015	-0.249314	-19.174	130.279	-5.6274	-42.5907	102.883	34.5425	49.232	115.485	44.2433	77.4904	76.5751	43.7238	68.234	
5	0.0416667	44.8115	23.4578	87.8896	23.465	14.6466	77.4588	-3.43843	6.52764	61.1192	-23.4882	-2.13069	46.8147	39.0431	24.5179	6.31992	31.8728	18.9431	-21.37	17.9523	13.5864	-46.3511	71.4573	25.3621	-6.9526	68.5196	17.4419	-38.9448	63.9066	10.0499	-66.9295	93.6387	16.7193	-8.15121	98.181	10.0053	-31.9563	93.5339	3.2382	-58.3554	121.153	6.63576	6.16513	123.187	-0.124301	-15.6329	132.505	-4.16171	-43.3033	106.535	32.7098	45.799	112.241	42.5827	75.5694	75.4228	42.7917	64.5512	
6	0.05	47.3067	22.2458	88.1256	20.5841	15.8933	79.9061	-8.57362	7.7441	60.0403	-26.6766	-2.31471	48.8847	40.1526	24.1253	5.65621	26.5916	19.0611	-20.1998	23.2001	12.5235	-46.706	68.338	25.4797	-7.93818	65.7399	16.7553	-38.8065	63.7958	8.58183	-69.0614	97.6631	16.2566	-8.55412	99.0212	9.02945	-32.3302	96.9368	2.80327	-58.6901	118.24	6.65421	8.50802	127.163	-2.12295	-17.7421	132.137	-5.36087	-43.8069	103.607	34.4045	48.7864	110.484	42.698	78.0359	73.3269	42.1627	65.6788	
7	0.0583333	47.4598	22.6181	92.6218	20.7817	15.7305	79.5851	-6.85487	7.14632	60.4606	-26.7383	-1.87827	46.7331	38.2242	24.7075	5.83049	29.2074	17.5548	-22.7275	20.2043	12.2012	-48.5285	70.0162	23.8497	-9.93162	65.4605	15.7819	-40.3882	65.6666	7.27031	-73.4659	98.2216	14.6112	-9.19601	100.011	7.88399	-33.6968	94.2163	2.99845	-58.6262	118.797	6.77752	9.64517	124.074	-1.2439	-14.667	132.972	-3.92797	-40.7623	102.162	34.6301	44.3572	111.773	43.6397	79.2636	71.9385	43.4466	68.8092	
8	0.0666667	48.6659	21.4337	87.0882	21.0004	15.0197	80.0429	-4.19254	6.41148	61.4121	-25.3055	-2.96896	48.7357	39.9113	23.236	4.1344	28.4528	18.4267	-20.7984	22.9892	12.3097	-44.4153	70.9012	24.1959	-8.84535	66.0333	14.848	-42.6122	63.755	8.27455	-67.1281	95.3166	16.3827	-5.38246	96.8502	8.11444	-30.7174	96.0616	2.3445	-61.6245	120.304	6.60791	7.71439	123.403	-2.08437	-17.6548	133.546	-6.43055	-38.1248	106.763	34.1938	44.922	114.311	42.1546	75.5081	75.6944	41.987	68.8334	
9	0.075	47.7756	22.4693	92.4558	20.5215	13.8763	79.5523	-5.49995	6.53076	61.8162	-26.2582	-2.16357	47.0179	41.9199	23.6828	3.78157	28.0577	18.165	-16.8192	21.1914	10.9963	-46.6574	67.1693	24.5006	-10.7868	65.4568	15.0139	-42.0297	62.5482	9.0566	-67.7028	96.1086	15.7976	-5.54019	95.5081	7.80935	-30.5324	94.1612	1.8642	-59.6123	122.278	5.77515	7.63877	124.49	-2.15144	-16.9932	128.779	-4.80476	-40.3984	102.255	31.9557	48.9672	113.8	40.5947	74.8351	77.6424	43.2515	69.0325	
10	0.0833333	49.3908	22.188	88.3361	18.2124	15.5822	78.0607	-8.8677	6.31393	61.0002	-26.2493	-3.07307	45.456	40.7613	25.2443	7.77611	26.5433	18.7539	-20.9492	24.325	12.8528	-45.4688	69.7249	24.0014	-10.4473	68.4117	16.6264	-39.1919	64.429	7.93995	-68.742	97.0141	15.1616	-9.64406	96.5115	8.40495	-31.9841	94.1356	2.07293	-59.9477	122.238	4.58761	6.80983	123.308	-2.86206	-17.6595	128.811	-6.4192	-44.3774	103.119	32.6361	50.031	113.777	42.5921	78.3878	76.8581	41.03	69.7304	
11	0.0916667	48.8258	21.8182	93.0925	23.3692	14.429	78.191	-8.62999	6.34849	57.1706	-28.665	-2.48451	44.4697	38.2518	25.9062	5.93531	28.9848	20.3928	-21.1198	21.2585	13.249	-47.373	67.4432	26.3357	-6.76902	66.0631	17.9162	-40.6389	60.5491	9.43648	-69.0016	95.7011	17.2396	-8.9174	96.516	9.10128	-32.1029	91.2933	1.63663	-62.1478	116.933	6.81942	2.96944	123.724	-2.24048	-21.227	128.515	-8.40114	-43.5737	104.003	32.88	44.7944	112.719	41.4827	77.5398	71.9012	41.5582	67.1745	
12	0.1	45.434	22.7101	92.9372	21.2904	14.1437	78.2122	-6.03668	5.21384	61.0894	-25.662	-3.0296	46.6794	36.7613	29.2462	4.20941	29.4018	22.7164	-20.8425	19.8124	16.5379	-42.4515	65.9787	28.6509	-11.1238	66.6938	17.7267	-42.7016	62.5147	7.91339	-69.0865	93.4546	18.8148	-9.59074	96.161	9.41928	-35.6064	87.7003	1.6266	-61.6698	118.77	8.84577	3.88599	120.089	-0.856941	-20.5885	121.521	-10.6164	-44.6309	102.311	36.1978	47.1658	111.859	40.7347	77.9796	73.0415	44.9702	71.3078	
13	0.108333	47.1339	22.2419	89.063	19.1162	12.3381	77.4939	-5.39442	3.50959	57.5903	-24.0892	-6.92405	45.0955	41.5952	31.5794	6.4627	31.385	26.6311	-20.7908	20.9519	19.6416	-48.3238	72.0755	31.4743	-6.55683	67.4496	21.5895	-38.7013	62.8002	5.38521	-70.4785	95.6156	20.6566	-9.64503	89.4436	12.0646	-32.6421	87.1382	-1.70166	-57.2637	118.907	9.82241	8.14084	118.865	-3.03825	-22.008	113.829	-15.0256	-41.0378	102.514	36.169	51.7503	111.627	41.2259	78.403	72.3432	46.3967	72.8933	
14	0.116667	44.7952	23.6151	88.8868	17.2299	10.8609	78.5147	-4.47501	-0.637363	55.2913	-21.8512	-12.1877	34.5863	39.7698	38.35	3.78389	32.6373	31.7027	-23.4435	22.9883	25.312	-46.286	68.4062	35.8278	-7.24977	68.4074	23.8172	-38.557	60.1392	-0.0631576	-65.7167	96.053	23.9717	-7.67829	89.7719	10.5743	-36.3881	78.2016	-12.9256	-54.8696	115.559	10.9707	7.57334	116.994	-3.61982	-20.4839	102.355	-26.9794	-38.0563	106.095	36.6285	50.0607	111.251	42.9615	81.3597	73.2878	46.7918	69.7106	
15	0.125	43.4613	26.8162	87.6966	20.6827	9.2419	73.9879	-1.57557	-4.97958	52.1593	-11.6832	-18.5761	31.5839	42.4639	44.0593	4.78421	33.2291	38.1731	-23.5828	25.7658	31.5154	-47.5112	70.6128	37.5114	-9.65086	62.2641	19.7876	-40.3223	53.8481	-9.43458	-54.3399	90.0916	25.0558	-8.57752	88.9206	6.64043	-32.3324	70.8376	-25.0686	-38.1719	113.211	9.44823	5.70748	106.286	-10.8864	-18.997	86.3023	-35.6424	-21.5046	109.202	38.2117	50.4874	116.505	43.009	78.2007	76.7907	49.693	72.9112	
16	0.133333	47.8067	28.2694	86.0803	20.9086	8.76202	69.8903	5.453	-8.4678	42.9741	-2.10418	-24.2565	22.7714	45.8561	47.5673	2.80786	36.3075	43.2064	-23.4703	33.0356	33.4947	-51.6342	70.7836	36.3616	-7.79767	60.0996	12.3503	-35.1367	50.9212	-24.0949	-33.3644	88.1672	19.4373	-5.15001	75.9708	-7.13765	-25.9068	57.5482	-34.7071	-12.3704	108.918	3.43791	6.85293	89.6503	-22.5283	-11.1316	69.9607	-41.7465	3.81241	108.846	37.9725	50.1473	118.867	42.1361	80.6674	80.4429	51.4367	72.3127	
17	0.141667	45.3118	32.6565	83.1022	24.5785	9.20375	63.8964	6.03545	-9.39481	43.1181	3.74372	-25.3486	21.4936	51.3283	47.7866	-0.0146266	43.1567	43.2398	-26.4902	36.8095	34.4619	-50.8907	70.0868	25.9496	-11.5985	53.6891	-4.08451	-27.6587	37.0178	-31.3724	-9.69339	81.1633	9.15835	-7.51631	66.6676	-22.2175	-13.8047	49.2293	-35.6442	10.2252	99.2055	-5.62065	4.43006	78.1342	-32.5355	0.868882	63.3494	-44.4077	24.7579	110.784	34.8313	47.277	120.085	39.9417	80.7045	80.1507	54.0376	70.3261	
18	0.15	44.8646	37.215	85.308	22.6143	12.8945	62.606	5.48362	-7.66162	41.8314	4.98208	-25.8659	17.741	51.1609	48.2444	0.444654	45.5556	42.3167	-25.9413	40.567	31.8362	-55.4336	63.2438	20.0027	-11.8223	48.0522	-9.94428	-19.3434	33.1143	-34.4496	11.2532	81.0112	-1.22125	-3.16428	58.731	-26.3292	-5.62406	43.1195	-34.5616	28.0542	95.1127	-13.3437	9.45356	66.9201	-36.9918	12.5374	57.6498	-37.7196	39.3961	106.959	32.0353	44.3596	116.4	35.6652	77.5371	85.3752	53.2511	65.9137	
19	0.158333	46.9484	41.2512	79.3471	24.4093	17.9303	60.4463	7.5113	-2.45611	41.6871	4.32721	-23.193	19.5709	55.2522	45.1153	-0.487572	47.5322	39.8089	-29.2453	39.864	32.3679	-53.9464	63.3552	10.3205	-10.2665	38.504	-16.0155	-10.4615	24.241	-29.2629	24.9082	71.0632	-10.7114	-2.271	46.4552	-29.2062	4.77115	37.0311	-28.8385	41.6155	86.5165	-20.3647	14.0109	58.4324	-39.2397	21.9774	48.2171	-25.81	52.3072	107.066	25.6753	40.4866	119.569	30.2435	72.162	90.4041	51.125	64.0495	
20	0.166667	52.3903	43.463	74.8388	24.028	25.7635	63.4384	-0.306961	4.79432	42.1908	2.80484	-17.407	23.6553	61.5072	39.202	-5.53935	50.1297	37.3329	-31.7413	42.5126	28.0438	-56.6453	60.4309	10.8387	-7.50512	32.4976	-15.2052	-8.05807	14.9457	-19.8857	31.9886	64.0935	-14.2805	1.15747	36.8456	-29.0094	12.965	31.5333	-26.0796	45.9714	77.7838	-31.3126	17.717	48.9828	-40.0976	31.0341	44.2217	-23.4983	60.5188	112.223	14.9178	43.515	123.199	23.0945	73.362	90.2195	50.3604	56.2113	
21	0.175	55.595	50.3134	70.8137	25.6586	30.6624	58.8299	-2.16652	13.8808	42.0602	-6.73163	-8.94129	28.7579	64.0005	37.3263	-11.6175	55.4694	34.966	-32.9323	45.3027	23.7401	-62.5392	57.6103	4.97788	-8.56557	22.7427	-10.7502	-3.77974	9.63545	-12.7895	33.3064	57.9994	-20.0495	4.72209	31.9763	-27.5277	16.2555	24.438	-17.446	50.7644	65.6101	-33.8645	21.6713	37.5888	-32.4436	37.4492	37.0833	-13.5463	63.3737	108.657	12.6452	43.3446	121.274	17.746	72.9658	99.598	44.746	55.3801	
22	0.183333	61.6404	53.1726	67.3861	29.104	39.2998	59.7818	0.00115749	21.5113	39.7012	-9.48668	-1.30562	28.5636	68.7514	35.1185	-13.8918	58.4332	28.897	-38.1829	50.4129	19.2843	-62.0163	59.965	0.623069	-5.59119	23.4047	-11.9435	-3.80025	5.43568	-5.28125	33.6227	56.7299	-21.0838	9.35516	24.5206	-23.4919	19.3789	19.3192	-9.80302	53.703	57.8916	-31.6244	24.7337	30.4171	-30.3464	41.5508	30.5532	-4.10315	63.4161	106.55	4.58765	39.3887	120.314	14.049	74.7837	101.512	40.1154	50.0336	
